#define add14_width 14
#define add14_height 14
static unsigned char add14_bits[] = {
   0xf8, 0x07, 0x04, 0x08, 0x02, 0x10, 0xc1, 0x20, 0xc1, 0x20, 0xc1, 0x20,
   0xf9, 0x27, 0xf9, 0x27, 0xc1, 0x20, 0xc1, 0x20, 0xc1, 0x20, 0x02, 0x10,
   0x04, 0x08, 0xf8, 0x07};
