#define clear14_width 14
#define clear14_height 14
static unsigned char clear14_bits[] = {
   0xf0, 0x03, 0x08, 0x04, 0x04, 0x08, 0x12, 0x12, 0x39, 0x27, 0xf1, 0x23,
   0xe1, 0x21, 0xe1, 0x21, 0xf1, 0x23, 0x39, 0x27, 0x12, 0x12, 0x04, 0x08,
   0x08, 0x04, 0xf0, 0x03};
