#define up14_width 14
#define up14_height 14
static unsigned char up14_bits[] = {
   0xf0, 0x03, 0x08, 0x04, 0xc4, 0x08, 0xe2, 0x11, 0xe1, 0x21, 0xf1, 0x23,
   0xf9, 0x27, 0xc1, 0x20, 0xc1, 0x20, 0xc1, 0x20, 0xc2, 0x10, 0xc4, 0x08,
   0x08, 0x04, 0xf0, 0x03};
